<svg enable-background="new 0 0 512 512" viewBox="0 0 512 512" xmlns="http://www.w3.org/2000/svg"><g id="weather_x2C__hot_x2C__temprature"><g><g fill="#daecfd"><path d="m466 66.001h-80c-5.522 0-10-4.477-10-10s4.478-10 10-10h80c5.522 0 10 4.477 10 10s-4.477 10-10 10z"/><path d="m466 106.001h-50c-5.522 0-10-4.477-10-10s4.478-10 10-10h50c5.522 0 10 4.477 10 10s-4.477 10-10 10z"/><path d="m466 146.001h-50c-5.522 0-10-4.477-10-10s4.478-10 10-10h50c5.522 0 10 4.477 10 10s-4.477 10-10 10z"/><path d="m466 196.001h-50c-5.522 0-10-4.477-10-10s4.478-10 10-10h50c5.522 0 10 4.477 10 10s-4.477 10-10 10z"/><path d="m466 236.001h-50c-5.522 0-10-4.477-10-10s4.478-10 10-10h50c5.522 0 10 4.477 10 10s-4.477 10-10 10z"/></g><path d="m274.09 426.681c-3.93-5.96-7.29-12.32-10-19.02-5.22-12.84-8.09-26.9-8.09-41.66 0-1.84.05-3.67.14-5.49 1.98-40.42 25.77-75.09 59.86-92.51v-90.26-57.52-34.22c0-13.8 5.6-26.3 14.65-35.35s21.55-14.65 35.35-14.65c27.61 0 50 22.39 50 50v10 40 50 40 42c35.62 18.2 60 55.25 60 98 0 61.22-50.02 110.76-111.41 109.99-38.01-.48-71.14-19.92-90.5-49.31zm91.91-120.68c-33.14 0-60 26.86-60 60s26.86 60 60 60 60-26.86 60-60-26.86-60-60-60z" fill="#eef6ff"/><path d="m316 177.741v90.26c-34.09 17.42-57.88 52.09-59.86 92.51-3.34.33-6.72.49-10.14.49-57.99 0-105-47.01-105-105s47.01-105 105-105c26.9 0 51.42 10.11 70 26.74z" fill="#fdb455"/><path d="m316 120.221v57.52c-18.58-16.63-43.1-26.74-70-26.74-57.99 0-105 47.01-105 105s47.01 105 105 105c3.42 0 6.8-.16 10.14-.49-.09 1.82-.14 3.65-.14 5.49 0 14.76 2.87 28.82 8.09 41.66-5.94.71-11.96 1.07-18.09 1.07-15.82 0-31.07-2.4-45.42-6.86-8.92-2.78-17.48-6.35-25.61-10.63-27.36-14.4-49.81-36.85-64.21-64.21-4.28-8.13-7.85-16.69-10.63-25.61-4.46-14.35-6.86-29.6-6.86-45.42s2.4-31.07 6.86-45.42c2.78-8.92 6.35-17.48 10.63-25.61 14.4-27.36 36.85-49.81 64.21-64.21 8.13-4.28 16.69-7.85 25.61-10.63 14.35-4.46 29.6-6.86 45.42-6.86 15.81 0 31.06 2.4 45.41 6.87 8.54 2.65 16.77 6.03 24.59 10.08z" fill="#fdd844"/><path d="m291.53 109.741v.01l-.12.39c-14.35-4.47-29.6-6.87-45.41-6.87-15.82 0-31.07 2.4-45.42 6.86l-.11-.38v-.01l45.53-63.74z" fill="#fdb455"/><path d="m274.09 426.681-28.09 39.32-45.53-63.74v-.01l.11-.38c14.35 4.46 29.6 6.86 45.42 6.86 6.13 0 12.15-.36 18.09-1.07 2.71 6.7 6.07 13.06 10 19.02z" fill="#fdb455"/><path d="m174.97 391.241-.19.37-77.27 12.88 12.88-77.27.37-.19c14.4 27.36 36.85 49.81 64.21 64.21z" fill="#fdb455"/><path d="m174.78 120.391.19.37c-27.36 14.4-49.81 36.85-64.21 64.21l-.37-.19-12.88-77.27z" fill="#fdb455"/><path d="m99.75 210.471.38.11c-4.46 14.35-6.86 29.6-6.86 45.42s2.4 31.07 6.86 45.42l-.38.11h-.01l-63.74-45.53 63.74-45.53z" fill="#fdb455"/><path d="m366 316.001c-5.522 0-10-4.478-10-10v-230c0-5.523 4.478-10 10-10s10 4.477 10 10v230c0 5.522-4.477 10-10 10z" fill="#fd9766"/><circle cx="366" cy="366.001" fill="#fdb455" r="60"/></g></g><g id="Layer_1"/></svg>